<svg width="47" height="46" viewBox="0 0 47 46" fill="none" xmlns="http://www.w3.org/2000/svg">
<path d="M0 11H22.4999L28.4999 17H13L28.4999 39H19L0 11Z" fill="#0095F6"/>
<path d="M29.471 0.886297C31.24 0.769905 33.0146 1.00309 34.6935 1.57253C36.3724 2.14197 37.9227 3.03652 39.2559 4.20511C40.5891 5.37369 41.6791 6.79343 42.4636 8.38325C43.2481 9.97307 43.7118 11.7018 43.8281 13.4709C43.9445 15.2399 43.7114 17.0145 43.1419 18.6934C42.5725 20.3723 41.6779 21.9226 40.5093 23.2558C39.3407 24.589 37.921 25.679 36.3312 26.4635C34.7414 27.248 33.0126 27.7117 31.2436 27.828L30.7799 20.7807C31.6235 20.7252 32.4478 20.5041 33.2059 20.13C33.964 19.7559 34.641 19.2362 35.1983 18.6005C35.7555 17.9647 36.1821 17.2255 36.4536 16.4249C36.7251 15.6243 36.8363 14.7781 36.7808 13.9345C36.7253 13.091 36.5042 12.2666 36.1301 11.5085C35.756 10.7504 35.2363 10.0734 34.6006 9.51619C33.9648 8.95895 33.2256 8.53239 32.425 8.26085C31.6244 7.98931 30.7782 7.87812 29.9346 7.93362L29.471 0.886297Z" fill="#0095F6"/>
<path d="M22 21.1399L31.5 20.6399L47 39.1399L36.5 38.6399L22 21.1399Z" fill="#0095F6"/>
<path d="M31.3745 0.830566L30 8L10.5 8L4.5 1L31.3745 0.830566Z" fill="#0095F6"/>
</svg>
